<?xml version="1.0" encoding="UTF-8"?>
<svg id="Calque_1" data-name="Calque 1" xmlns="http://www.w3.org/2000/svg" viewBox="0 0 1465.27 938.26">
  <defs>
    <style>
      .cls-1 {
        letter-spacing: 0em;
      }

      .cls-2 {
        font-size: 227.27px;
      }

      .cls-2, .cls-3, .cls-4 {
        font-family: Gabriola, Gabriola;
      }

      .cls-5 {
        letter-spacing: -.07em;
      }

      .cls-3 {
        font-size: 645.36px;
      }

      .cls-4 {
        font-size: 227.43px;
      }

      .cls-6 {
        fill: #78e6ff;
      }

      .cls-7 {
        fill: #ffd2a1;
      }
    </style>
  </defs>
  <path class="cls-6" d="m0,458.78c76.24-128.62,190.92-235.5,326.84-298.64,115.07-53.06,244.85-73.53,370.67-58.5,151.55,18.35,294.78,90.49,407.41,192.23,10.13,9.34,20.02,18.91,29.29,29.12,0,0-1.68,1.72-1.68,1.72-10.43-8.8-21.2-17.22-32.14-25.37-130.07-96.4-284.17-163.87-446.1-178.91-94.2-8.55-189.85,4.84-278.86,36.59-115.36,40.9-218.34,113.71-299.36,205.13-18.06,20.36-35.3,41.76-51.15,63.88-7.96,11.09-15.59,22.43-22.87,34,0,0-2.05-1.24-2.05-1.24h0Z"/>
  <path class="cls-7" d="m1465.27,359.5c-81.15,125.58-199.87,227.96-338.13,285.8-117.03,48.57-247.5,64.02-372.66,44.14-150.73-24.19-291.07-101.81-399.69-207.82-9.76-9.72-19.27-19.67-28.14-30.23,0,0,1.74-1.65,1.74-1.65,10.08,9.2,20.52,18.02,31.14,26.6,126.25,101.35,277.63,174.72,438.86,196,93.8,12.18,189.9,2.5,280.06-25.8,116.86-36.42,222.57-105.19,307.05-193.42,18.83-19.65,36.88-40.36,53.58-61.86,8.39-10.78,16.45-21.81,24.16-33.09,0,0,2,1.32,2,1.32h0Z"/>
  <text class="cls-3" transform="translate(644.52 502.77) scale(1.15 1)"><tspan x="0" y="0">v</tspan></text>
  <text class="cls-2" transform="translate(383.27 329.74) scale(1.25 1)"><tspan class="cls-5" x="0" y="0">T</tspan><tspan class="cls-1" x="76.68" y="0">a</tspan></text>
  <text class="cls-4" transform="translate(861.87 513.01) scale(1.15 1)"><tspan x="0" y="0">ue</tspan></text>
</svg>